<svg width="5" height="8" viewBox="0 0 5 8" fill="none" xmlns="http://www.w3.org/2000/svg">
<path d="M4.25445 7.99948C4.00674 8.00746 3.81757 7.91163 3.65994 7.76389C2.52047 6.67778 1.3855 5.58769 0.255033 4.4936C-0.0872592 4.16218 -0.0827553 3.83076 0.255033 3.50733C1.38099 2.42122 2.50696 1.33912 3.64643 0.260999C4.11032 -0.17424 4.76789 -0.0464632 4.96606 0.504574C5.06514 0.780092 4.93453 0.995715 4.73186 1.19137C3.82658 2.06185 2.91681 2.93632 2.00253 3.80281C1.84039 3.95454 1.84039 4.04638 2.00253 4.19812C2.92131 5.06061 3.82658 5.93508 4.73186 6.80956C4.95254 7.02518 5.08766 7.26875 4.93453 7.57222C4.79941 7.83576 4.57422 7.97152 4.25895 7.99948H4.25445Z" fill="#2F2F2F"/>
</svg>
