<svg width="183" height="40" viewBox="0 0 183 40" fill="none" xmlns="http://www.w3.org/2000/svg">
<path d="M123.088 17.8851C123.311 17.1754 123.805 17.1991 124.198 17.1044C125.423 16.8016 126.656 16.5414 127.885 16.248C129.764 15.7985 129.821 15.8317 130.029 17.8C131.22 16.3427 132.72 15.8648 134.465 16.0966C136.226 16.3285 137.54 17.7621 137.526 19.4323C137.511 20.7713 136.795 21.6325 135.462 21.9022C134.333 22.134 133.284 21.5852 132.776 20.4591C132.601 20.0711 132.549 19.6263 132.406 19.2194C132.274 18.8362 132.065 18.505 131.581 18.4908C131.04 18.4766 130.784 18.8362 130.679 19.2715C130.561 19.7635 130.504 20.284 130.499 20.795C130.475 22.8011 130.475 24.812 130.49 26.8182C130.494 27.5516 130.618 28.2424 131.472 28.512C132.013 28.6824 131.842 29.1508 131.823 29.5104C131.794 30.0167 131.353 29.8274 131.087 29.8274C128.758 29.8416 126.424 29.8416 124.094 29.8274C123.814 29.8274 123.397 29.9835 123.349 29.4962C123.311 29.1224 123.197 28.6777 123.724 28.5073C124.569 28.2329 124.692 27.5658 124.687 26.8134C124.687 24.6464 124.673 22.4794 124.687 20.3171C124.697 19.3235 124.346 18.6753 123.216 18.5901C123.302 19.9102 123.24 21.2066 122.908 22.4699C121.826 26.6053 118.923 28.7959 114.895 29.5341C111.146 30.2201 107.327 29.7186 103.541 29.8321C103.309 29.8369 103.033 29.8511 103.029 29.5057C103.029 29.1319 102.867 28.6777 103.389 28.5026C104.243 28.214 104.314 27.5279 104.314 26.7898C104.314 22.1813 104.314 17.5728 104.314 12.9691C104.314 12.1884 104.258 11.4503 103.347 11.1617C102.848 11.0055 103.038 10.5939 103.024 10.2722C103.01 9.88418 103.304 9.85106 103.598 9.85579C107.19 9.92203 110.805 9.55771 114.373 10.0782C118.814 10.7311 121.945 13.059 123.084 17.8851H123.088ZM110.217 19.7777C110.217 22.1387 110.25 24.4997 110.198 26.8608C110.179 27.6178 110.43 27.7597 111.132 27.7645C113.443 27.7692 115.113 26.733 116.014 24.6795C117.428 21.4621 117.414 18.169 116 14.9563C115.137 12.988 113.509 11.9992 111.332 11.8761C110.501 11.8288 110.155 11.9802 110.188 12.9313C110.269 15.2118 110.212 17.4971 110.212 19.7777H110.217Z" fill="currentColor"/>
<path d="M13.6305 19.0726C14.29 19.2949 14.8261 19.4369 15.329 19.6498C17.1462 20.4021 18.337 21.7175 18.5078 23.7C18.6834 25.744 17.8341 27.3669 16.0597 28.4693C14.6126 29.3636 13.0042 29.7752 11.3389 29.8083C7.82803 29.8746 4.31239 29.8414 0.796741 29.832C0.531051 29.832 0.0945607 30.0307 0.0471161 29.5386C0.00916044 29.1412 -0.137918 28.6633 0.469373 28.4693C1.31863 28.1996 1.40403 27.4615 1.40403 26.747C1.41827 22.1433 1.41827 17.5396 1.40403 12.9358C1.40403 12.1599 1.2617 11.4217 0.350762 11.171C-0.180618 11.0243 0.0708384 10.5985 0.0328827 10.2909C-0.0145619 9.90294 0.265361 9.84616 0.569007 9.85563C4.31239 9.98338 8.08423 9.47711 11.7897 10.2294C14.8593 10.854 16.3728 12.7229 16.2068 15.4293C16.1024 17.109 15.1914 18.2682 13.6305 19.0726ZM7.17804 24.1305C7.17804 24.8355 7.16855 25.5452 7.17804 26.2502C7.20651 27.8873 6.86491 27.7501 8.68203 27.7407C10.9357 27.7312 12.321 26.3543 12.3305 24.1636C12.34 21.9635 10.9831 20.5819 8.71999 20.5583C6.80323 20.5393 7.216 20.4494 7.17804 22.0061C7.15906 22.7111 7.17804 23.4208 7.17804 24.1258V24.1305ZM7.18279 15.1596C7.18279 16.0208 7.21125 16.8819 7.1733 17.743C7.14957 18.3155 7.36782 18.4669 7.92292 18.4764C9.7021 18.5095 10.9736 17.4071 11.1634 15.5997C11.3674 13.6597 10.3094 12.1599 8.54445 11.9091C7.6857 11.7861 6.97403 11.8097 7.16855 13.0446C7.27293 13.7307 7.18753 14.4499 7.18753 15.1549L7.18279 15.1596Z" fill="currentColor"/>
<path d="M52.6401 24.7788C51.0128 23.2222 50.4387 21.4715 51.1883 19.4465C51.9759 17.3173 53.7598 16.4514 55.8521 16.1439C56.9006 15.9925 57.9871 15.9499 59.0262 16.2764C59.7805 16.5129 59.9466 16.2243 60.0462 15.5146C60.3356 13.4753 61.4458 12.4155 63.0352 12.529C64.2403 12.6142 65.0137 13.4942 64.8903 14.6487C64.7717 15.7843 64.117 16.2574 62.8217 16.1533C62.5086 16.1297 62.1907 16.106 61.8776 16.1202C61.517 16.1344 61.3272 16.3804 61.2039 16.6975C61.0805 17.0192 61.2513 17.199 61.4791 17.393C63.2535 18.9023 63.7469 20.7902 62.8739 22.9099C62.0009 25.0296 60.1459 25.8434 57.9776 26.0611C56.8295 26.1746 55.6813 26.1368 54.5854 25.7535C54.054 25.5643 53.608 25.5785 53.423 26.1273C53.1952 26.8086 53.7978 26.8749 54.2438 26.9932C55.52 27.3291 56.8295 27.2439 58.1295 27.2676C59.3535 27.2913 60.5729 27.3386 61.7732 27.6177C65.1418 28.3937 66.2615 31.0954 64.4206 34.0384C63.2108 35.9735 61.3415 36.9624 59.178 37.3409C56.7346 37.7668 54.3007 37.5586 51.9332 36.7732C51.065 36.4845 50.2489 36.0776 49.6274 35.3868C48.4081 34.0336 48.6453 32.2782 50.2157 30.9629C50.4909 30.7311 50.9084 30.6648 50.4245 30.1254C48.8019 28.318 49.1956 26.4443 51.3544 25.3419C51.7387 25.1479 52.142 24.9918 52.6354 24.7788H52.6401ZM57.043 35.9735C58.3192 36.0445 59.5101 35.8647 60.5112 35.0462C61.0995 34.5683 61.3889 33.9343 61.2513 33.1725C61.1137 32.4202 60.4827 32.2309 59.8565 32.1032C59.3203 31.9944 58.77 31.9565 58.2244 31.9187C56.9291 31.8335 55.6291 31.8051 54.3386 31.6821C53.0766 31.5591 52.7872 31.7672 52.7065 33.0353C52.6354 34.1945 53.1762 34.9847 54.201 35.4625C55.1072 35.8836 56.0799 36.0161 57.043 35.9641V35.9735ZM58.4046 21.0741C58.4189 20.0899 58.3952 19.1152 57.9776 18.1926C57.7879 17.7715 57.5364 17.4261 57.0335 17.4498C56.5875 17.4734 56.3408 17.7999 56.208 18.1926C55.5627 20.1136 55.5627 22.0346 56.208 23.9556C56.3361 24.3435 56.5685 24.6606 57.0335 24.6889C57.5601 24.7221 57.7974 24.3672 57.9824 23.9556C58.3999 23.0377 58.4284 22.0582 58.4046 21.0741Z" fill="currentColor"/>
<path d="M160.27 29.3918C160.27 30.7734 160.261 32.0699 160.27 33.3615C160.28 34.024 160.436 34.6438 161.191 34.833C161.822 34.9939 161.694 35.4718 161.651 35.874C161.594 36.4276 161.115 36.2099 160.816 36.2099C158.524 36.2288 156.233 36.2288 153.936 36.2099C153.642 36.2099 153.153 36.437 153.139 35.8314C153.13 35.4671 152.978 35.0128 153.533 34.8567C154.344 34.6249 154.487 33.9483 154.487 33.2669C154.506 28.9329 154.506 24.5988 154.487 20.2695C154.487 19.5835 154.34 18.9163 153.538 18.675C152.997 18.5141 153.153 18.0694 153.125 17.6956C153.092 17.2224 153.49 17.2272 153.761 17.1609C155.336 16.7966 156.906 16.4134 158.5 16.1437C158.999 16.0585 159.772 15.6421 159.971 16.7162C160.042 17.1042 160.417 16.7351 160.636 16.6405C163.662 15.3724 167.173 16.2572 168.924 18.7318C170.827 21.4193 170.58 25.7533 168.393 28.0528C166.5 30.04 163.43 30.6741 160.868 29.6142C160.697 29.5432 160.517 29.4817 160.265 29.3871L160.27 29.3918ZM164.365 23.0611C164.341 21.7268 164.303 20.3925 163.8 19.134C163.496 18.3769 163.046 17.6861 162.149 17.6483C161.229 17.6104 160.735 18.2918 160.469 19.063C159.535 21.741 159.53 24.438 160.479 27.1207C160.74 27.8541 161.195 28.4739 162.068 28.4976C162.998 28.5212 163.468 27.8636 163.781 27.1065C164.312 25.8148 164.365 24.4427 164.374 23.0658L164.365 23.0611Z" fill="currentColor"/>
<path d="M28.8842 28.5451C27.8499 29.5576 26.7302 30.097 25.3543 30.1159C21.3737 30.1727 19.3289 28.2044 19.3146 24.2441C19.3146 22.943 19.3241 21.6465 19.3099 20.3454C19.3004 19.6167 19.2387 18.9117 18.3515 18.6562C17.8818 18.5238 18.0052 18.1074 17.9815 17.7667C17.953 17.4213 18.1333 17.2746 18.4464 17.2084C20.3347 16.811 22.1993 16.3142 24.1208 16.0634C24.9843 15.9498 25.1598 16.3283 25.1503 17.1232C25.1124 19.9574 25.1219 22.7963 25.1741 25.6305C25.2025 27.2865 25.8003 28.1003 26.8109 28.0908C27.755 28.0861 28.4335 27.1493 28.4809 25.5973C28.5331 23.7852 28.5094 21.973 28.4904 20.1656C28.4809 19.5126 28.3101 18.8881 27.5653 18.6894C27.0149 18.5427 27.124 18.1358 27.0956 17.7525C27.0718 17.3977 27.2521 17.2794 27.5653 17.2179C29.4203 16.8441 31.2659 16.4466 33.121 16.0823C33.9276 15.9214 34.2929 16.1486 34.2692 17.1138C34.198 20.1845 34.2407 23.2552 34.2455 26.3307C34.2455 27.2486 34.2217 28.176 35.3509 28.5592C35.8159 28.7201 35.5976 29.1649 35.6166 29.4866C35.6451 29.9408 35.275 29.832 35.0283 29.832C33.2491 29.8415 31.47 29.7942 29.6955 29.8509C28.685 29.8841 29.1499 29.1318 28.8937 28.5451H28.8842Z" fill="currentColor"/>
<path d="M145.226 16.087C146.469 16.0113 147.665 16.2526 148.813 16.6879C151.883 17.8566 153.396 20.3643 153.173 23.8609C152.998 26.6572 150.891 29.0702 147.902 29.7941C145.625 30.3477 143.362 30.2862 141.198 29.2737C138.518 28.0198 137.099 25.5831 137.265 22.6023C137.422 19.7918 139.206 17.5112 141.972 16.5838C143.025 16.229 144.102 16.0208 145.222 16.087H145.226ZM147.47 23.1322C147.485 21.5897 147.38 20.0662 146.754 18.6278C146.45 17.937 145.995 17.374 145.184 17.3976C144.429 17.4166 143.955 17.9702 143.732 18.6231C142.731 21.585 142.726 24.5706 143.732 27.5278C143.95 28.1712 144.41 28.7248 145.188 28.7437C146.019 28.7627 146.455 28.2044 146.759 27.5183C147.371 26.1178 147.489 24.6321 147.475 23.1275L147.47 23.1322Z" fill="currentColor"/>
<path d="M73.5676 23.0896C72.5428 23.0896 71.5132 23.1228 70.4884 23.0802C69.7151 23.0471 69.4304 23.1748 69.7008 24.0596C70.5454 26.8228 73.5486 27.9205 76.2292 26.3922C76.5993 26.1793 76.9314 25.5784 77.4818 26.2597C77.9942 26.8938 77.4391 27.2013 77.1781 27.5562C75.2851 30.1206 71.4753 30.8824 68.1731 29.392C65.0513 27.982 63.609 25.1053 64.2827 21.6513C64.9232 18.3723 67.5706 16.1627 70.9629 16.0681C75.1285 15.9546 77.5672 18.1121 77.7949 22.0392C77.8423 22.8625 77.6099 23.1559 76.7654 23.1038C75.7026 23.0376 74.6351 23.0896 73.5676 23.0896ZM71.2902 21.3484C71.8501 20.88 73.1169 22.0345 73.0836 20.4022C73.0504 18.6231 72.4384 17.3598 71.5275 17.3125C70.5359 17.2604 69.5538 18.7934 69.5538 20.5299C69.5538 22.0534 70.7968 20.828 71.2902 21.3532V21.3484Z" fill="currentColor"/>
<path d="M176.445 30.1066C174.348 30.1492 172.583 29.6382 170.847 28.9427C170.363 28.7487 170.178 28.4979 170.197 27.9869C170.235 27.1637 170.197 26.3356 170.211 25.5076C170.211 25.219 170.092 24.8263 170.614 24.8547C170.946 24.8736 171.321 24.7222 171.506 25.2001C171.701 25.7111 171.924 26.2221 172.204 26.6905C173.133 28.2188 175.145 29.1414 176.882 28.8623C177.408 28.7771 177.906 28.602 178.025 28.0011C178.134 27.4334 177.726 27.1069 177.304 26.894C176.284 26.3877 175.226 25.9571 174.196 25.4603C172.26 24.5282 170.685 23.2886 170.657 20.8944C170.624 18.3915 172.208 16.5888 174.875 16.1724C176.863 15.8649 178.803 16.1298 180.663 16.9342C181.356 17.2323 181.749 17.6202 181.631 18.4388C181.555 18.9782 181.64 19.5412 181.607 20.0901C181.588 20.3929 181.806 20.8424 181.218 20.8944C180.744 20.937 180.407 20.866 180.207 20.3409C179.728 19.0586 179.059 17.9231 177.626 17.4736C176.725 17.1897 175.786 17.1471 175.311 18.0319C174.808 18.9687 175.458 19.6453 176.265 20.1469C177.375 20.8377 178.609 21.2635 179.795 21.7887C181.982 22.7586 182.765 23.8705 182.608 25.7773C182.442 27.8308 181.18 29.2692 179.05 29.8038C178.129 30.0357 177.185 30.1398 176.44 30.1019L176.445 30.1066Z" fill="currentColor"/>
<path d="M84.5036 17.8945C85.7514 16.3236 87.2269 15.8883 88.9397 16.0871C90.7473 16.3 92.128 17.7998 92.0758 19.4843C92.0331 20.7854 91.2502 21.6702 89.936 21.9162C88.8116 22.1244 87.7773 21.5377 87.2839 20.4164C87.2222 20.2744 87.151 20.1277 87.1083 19.9811C86.9328 19.3612 86.9755 18.5001 86.0598 18.519C85.0445 18.5427 85.1014 19.4843 85.0824 20.1277C85.0018 22.4462 84.997 24.7646 85.016 27.083C85.016 27.6745 85.2105 28.2801 85.908 28.4646C86.52 28.6255 86.4204 29.0939 86.3729 29.5008C86.3065 30.0544 85.8273 29.8226 85.5331 29.8273C83.2463 29.8462 80.9547 29.8462 78.6679 29.8273C78.3738 29.8273 77.8898 30.0497 77.8661 29.4488C77.8519 29.0703 77.7427 28.6444 78.2789 28.4836C79.0759 28.247 79.2183 27.5798 79.223 26.8938C79.242 24.6936 79.242 22.4888 79.223 20.2839C79.2135 19.5552 79.0759 18.8692 78.184 18.6515C77.6906 18.5285 77.9041 18.079 77.8566 17.7525C77.8092 17.3977 78.0227 17.2747 78.3216 17.2037C79.9299 16.8346 81.5336 16.4041 83.1562 16.0965C84.4087 15.8599 84.4229 15.9262 84.5083 17.8897L84.5036 17.8945Z" fill="currentColor"/>
<path d="M42.4771 17.9607C44.0998 16.0019 45.9026 15.6707 47.9096 16.352C49.2665 16.811 50.111 18.0838 50.1015 19.4086C50.092 20.7287 49.3614 21.6087 48.0329 21.8926C46.8468 22.1481 45.7888 21.5709 45.2954 20.3738C45.1483 20.0142 45.0724 19.6215 44.9538 19.2477C44.8162 18.7982 44.5647 18.4623 44.0381 18.4907C43.5067 18.5191 43.2837 18.907 43.2173 19.3518C42.833 22.0156 42.999 24.6889 43.0797 27.3622C43.0939 27.8306 43.3312 28.299 43.872 28.4315C44.4603 28.5782 44.4224 29.004 44.3987 29.4441C44.3654 30.0497 43.891 29.8226 43.6016 29.8226C41.2721 29.8415 38.9425 29.8368 36.613 29.8226C36.3473 29.8226 35.9108 29.9976 35.8871 29.4866C35.8729 29.1223 35.7068 28.6634 36.2572 28.5025C37.1064 28.247 37.2582 27.5751 37.263 26.8275C37.2725 24.6653 37.2725 22.4982 37.263 20.3359C37.263 19.5978 37.1254 18.907 36.2714 18.6563C35.7969 18.5191 35.9108 18.1311 35.8729 17.7857C35.8302 17.3551 36.1053 17.251 36.428 17.1753C37.9984 16.811 39.5783 16.4703 41.144 16.0776C42.6479 15.6944 42.5863 16.6738 42.4819 17.9513L42.4771 17.9607Z" fill="currentColor"/>
</svg>
