<svg width="100" height="100" viewBox="0 0 100 100" fill="none" xmlns="http://www.w3.org/2000/svg">
<mask id="mask0_592_1501" style="mask-type:alpha" maskUnits="userSpaceOnUse" x="0" y="0" width="100" height="100">
<rect width="100" height="100" fill="#D9D9D9"/>
</mask>
<g mask="url(#mask0_592_1501)">
<path d="M100 100C100 93.4339 98.7067 86.9321 96.194 80.8658C93.6812 74.7995 89.9983 69.2876 85.3553 64.6447C80.7124 60.0017 75.2004 56.3188 69.1342 53.806C63.0679 51.2933 56.5661 50 50 50C43.4339 50 36.9321 51.2933 30.8658 53.806C24.7995 56.3188 19.2876 60.0017 14.6447 64.6447C10.0017 69.2876 6.31876 74.7996 3.80602 80.8658C1.29329 86.9321 -5.74026e-07 93.4339 0 100L50 100H100Z" fill="#FED100"/>
</g>
</svg>
