<svg width="194" height="25" viewBox="0 0 194 25" fill="none" xmlns="http://www.w3.org/2000/svg">
<path d="M17.3125 1.65625L17.1562 8.28125L12.5 8.46875L11.3125 23.2812L4.71875 23.625L4.75 8.8125L0.09375 9.0625L0.28125 1.6875L17.3125 1.65625ZM35.7188 22.6562L27.9688 23.6562L27.0312 20.125H23.4688L22.6875 23.6562L14.7188 22.875L20.9375 2.0625L29.625 1.625L35.7188 22.6562ZM26.4688 15.3438L25.2812 9.90625L24.125 15.3438H26.4688ZM50.5469 2.65625L49.9844 9.25C49.6823 9.16667 49.3854 9.10938 49.0938 9.07812C48.8021 9.04688 48.5052 9.03125 48.2031 9.03125C47.4635 9.03125 46.7552 9.125 46.0781 9.3125C45.4115 9.5 44.8177 9.78646 44.2969 10.1719C43.7865 10.5573 43.375 11.0469 43.0625 11.6406C42.7604 12.224 42.6094 12.9167 42.6094 13.7188C42.6094 14.3021 42.6927 14.8125 42.8594 15.25C43.0365 15.6771 43.2812 16.0365 43.5938 16.3281C43.9167 16.6094 44.3021 16.8229 44.75 16.9688C45.2083 17.1146 45.7135 17.1875 46.2656 17.1875C46.651 17.1875 47.0469 17.151 47.4531 17.0781C47.8594 16.9948 48.2656 16.8854 48.6719 16.75C49.0781 16.6146 49.4688 16.4583 49.8438 16.2812C50.2188 16.1042 50.5677 15.9167 50.8906 15.7188L50.6406 23.0625C50.2344 23.2708 49.7969 23.4583 49.3281 23.625C48.8594 23.7812 48.375 23.9167 47.875 24.0312C47.3854 24.1562 46.8906 24.25 46.3906 24.3125C45.901 24.375 45.4323 24.4062 44.9844 24.4062C43.5052 24.4062 42.1562 24.1302 40.9375 23.5781C39.7292 23.026 38.6875 22.276 37.8125 21.3281C36.9479 20.3698 36.276 19.2604 35.7969 18C35.3177 16.7396 35.0781 15.3958 35.0781 13.9688C35.0781 12.2604 35.3177 10.6667 35.7969 9.1875C36.2865 7.70833 37 6.42708 37.9375 5.34375C38.8854 4.25 40.0521 3.39583 41.4375 2.78125C42.8333 2.15625 44.4323 1.84375 46.2344 1.84375C46.9531 1.84375 47.6823 1.90104 48.4219 2.01562C49.1615 2.13021 49.8698 2.34375 50.5469 2.65625ZM71.0781 12.0312C71.0781 12.9792 70.9688 13.8958 70.75 14.7812C70.5312 15.6562 70.2135 16.4792 69.7969 17.25C69.3906 18.0208 68.8906 18.7292 68.2969 19.375C67.7135 20.0104 67.0521 20.5573 66.3125 21.0156C65.5833 21.474 64.7865 21.8333 63.9219 22.0938C63.0573 22.3438 62.1406 22.4688 61.1719 22.4688C60.2344 22.4688 59.3385 22.349 58.4844 22.1094C57.6406 21.8698 56.849 21.5365 56.1094 21.1094C55.3698 20.6719 54.6979 20.151 54.0938 19.5469C53.5 18.9323 52.9896 18.2552 52.5625 17.5156C52.1458 16.7656 51.8177 15.9635 51.5781 15.1094C51.349 14.2552 51.2344 13.3646 51.2344 12.4375C51.2344 11.5312 51.3438 10.6458 51.5625 9.78125C51.7812 8.90625 52.0938 8.08333 52.5 7.3125C52.9167 6.54167 53.4167 5.83333 54 5.1875C54.5833 4.54167 55.2344 3.98438 55.9531 3.51562C56.6823 3.04688 57.4688 2.68229 58.3125 2.42188C59.1562 2.16146 60.0469 2.03125 60.9844 2.03125C62.4948 2.03125 63.8698 2.26562 65.1094 2.73438C66.3594 3.20312 67.4219 3.875 68.2969 4.75C69.1823 5.61458 69.8646 6.66667 70.3438 7.90625C70.8333 9.13542 71.0781 10.5104 71.0781 12.0312ZM64.1406 12.4375C64.1406 11.9896 64.0729 11.5573 63.9375 11.1406C63.8125 10.7135 63.625 10.3385 63.375 10.0156C63.125 9.68229 62.8125 9.41667 62.4375 9.21875C62.0729 9.01042 61.651 8.90625 61.1719 8.90625C60.6823 8.90625 60.2448 8.99479 59.8594 9.17188C59.474 9.34896 59.1406 9.59375 58.8594 9.90625C58.5885 10.2083 58.3802 10.5677 58.2344 10.9844C58.0885 11.3906 58.0156 11.8229 58.0156 12.2812C58.0156 12.7188 58.0781 13.1562 58.2031 13.5938C58.3281 14.0312 58.5156 14.4271 58.7656 14.7812C59.0156 15.1354 59.3229 15.4219 59.6875 15.6406C60.0625 15.8594 60.4948 15.9688 60.9844 15.9688C61.474 15.9688 61.9115 15.875 62.2969 15.6875C62.6927 15.4896 63.026 15.2292 63.2969 14.9062C63.5677 14.5729 63.776 14.1927 63.9219 13.7656C64.0677 13.3385 64.1406 12.8958 64.1406 12.4375ZM77.8438 7.15625C77.8542 6.66667 77.9583 6.125 78.1562 5.53125C78.3646 4.9375 78.6562 4.35417 79.0312 3.78125C79.4062 3.19792 79.8542 2.65104 80.375 2.14062C80.9062 1.61979 81.5 1.1875 82.1562 0.84375C82.1667 1.25 82.1823 1.65625 82.2031 2.0625C82.224 2.40625 82.2396 2.77083 82.25 3.15625C82.2708 3.54167 82.2917 3.88542 82.3125 4.1875C82.9583 4.42708 83.4688 4.82812 83.8438 5.39062C84.2188 5.95312 84.4062 6.57292 84.4062 7.25C84.4062 7.69792 84.3177 8.11979 84.1406 8.51562C83.974 8.91146 83.7396 9.26042 83.4375 9.5625C83.1458 9.85417 82.7969 10.0885 82.3906 10.2656C81.9948 10.4427 81.5729 10.5312 81.125 10.5312C80.6771 10.5312 80.25 10.4427 79.8438 10.2656C79.4479 10.0885 79.099 9.85417 78.7969 9.5625C78.5052 9.26042 78.2708 8.91146 78.0938 8.51562C77.9167 8.11979 77.8333 7.69792 77.8438 7.25V7.15625ZM103.547 18.4375C103.547 19.3021 103.385 20.0469 103.062 20.6719C102.75 21.2969 102.328 21.8281 101.797 22.2656C101.266 22.7031 100.651 23.0625 99.9531 23.3438C99.2656 23.6146 98.5469 23.8281 97.7969 23.9844C97.0469 24.1406 96.2917 24.2448 95.5312 24.2969C94.7812 24.349 94.0781 24.375 93.4219 24.375C92.776 24.375 92.1042 24.349 91.4062 24.2969C90.7188 24.2552 90.0312 24.1771 89.3438 24.0625C88.6562 23.9479 87.9792 23.7969 87.3125 23.6094C86.6458 23.4115 86.0156 23.1667 85.4219 22.875L85.3906 2.75C85.974 2.51042 86.5938 2.29688 87.25 2.10938C87.9062 1.91146 88.5729 1.75 89.25 1.625C89.9375 1.48958 90.6198 1.39062 91.2969 1.32812C91.974 1.25521 92.6302 1.21875 93.2656 1.21875C94.0052 1.21875 94.75 1.26562 95.5 1.35938C96.2604 1.45312 96.9896 1.60938 97.6875 1.82812C98.3854 2.04688 99.0365 2.33333 99.6406 2.6875C100.245 3.03125 100.771 3.45833 101.219 3.96875C101.677 4.47917 102.031 5.07292 102.281 5.75C102.542 6.42708 102.672 7.20833 102.672 8.09375C102.672 8.67708 102.589 9.22396 102.422 9.73438C102.255 10.2448 102.016 10.7031 101.703 11.1094C101.391 11.5156 101.01 11.8646 100.562 12.1562C100.115 12.4375 99.6094 12.6458 99.0469 12.7812C99.724 12.9583 100.339 13.2188 100.891 13.5625C101.453 13.9062 101.927 14.3229 102.312 14.8125C102.708 15.3021 103.01 15.8542 103.219 16.4688C103.438 17.0833 103.547 17.7396 103.547 18.4375ZM95.6094 9.53125C95.6094 9.22917 95.5469 8.97396 95.4219 8.76562C95.2969 8.54688 95.1406 8.36979 94.9531 8.23438C94.776 8.09896 94.5781 8 94.3594 7.9375C94.151 7.875 93.9635 7.84375 93.7969 7.84375C93.5885 7.84375 93.3854 7.875 93.1875 7.9375C92.9896 8 92.7969 8.07292 92.6094 8.15625L92.5156 11.625C92.7552 11.625 93.0521 11.6042 93.4062 11.5625C93.7604 11.5208 94.099 11.4323 94.4219 11.2969C94.7552 11.151 95.0365 10.9427 95.2656 10.6719C95.4948 10.3906 95.6094 10.0104 95.6094 9.53125ZM93.3906 14.625C93.0885 14.625 92.7969 14.6562 92.5156 14.7188L92.4531 18.2812C92.6094 18.3125 92.7604 18.3438 92.9062 18.375C93.0625 18.3958 93.2135 18.4062 93.3594 18.4062C93.5781 18.4062 93.8177 18.3854 94.0781 18.3438C94.3385 18.2917 94.5833 18.1979 94.8125 18.0625C95.0417 17.9167 95.2292 17.724 95.375 17.4844C95.5312 17.2448 95.6094 16.9271 95.6094 16.5312C95.6094 16.1354 95.5312 15.8125 95.375 15.5625C95.2292 15.3125 95.0469 15.1198 94.8281 14.9844C94.6094 14.8385 94.3698 14.7448 94.1094 14.7031C93.849 14.651 93.6094 14.625 93.3906 14.625ZM123.328 12.0312C123.328 12.9792 123.219 13.8958 123 14.7812C122.781 15.6562 122.464 16.4792 122.047 17.25C121.641 18.0208 121.141 18.7292 120.547 19.375C119.964 20.0104 119.302 20.5573 118.562 21.0156C117.833 21.474 117.036 21.8333 116.172 22.0938C115.307 22.3438 114.391 22.4688 113.422 22.4688C112.484 22.4688 111.589 22.349 110.734 22.1094C109.891 21.8698 109.099 21.5365 108.359 21.1094C107.62 20.6719 106.948 20.151 106.344 19.5469C105.75 18.9323 105.24 18.2552 104.812 17.5156C104.396 16.7656 104.068 15.9635 103.828 15.1094C103.599 14.2552 103.484 13.3646 103.484 12.4375C103.484 11.5312 103.594 10.6458 103.812 9.78125C104.031 8.90625 104.344 8.08333 104.75 7.3125C105.167 6.54167 105.667 5.83333 106.25 5.1875C106.833 4.54167 107.484 3.98438 108.203 3.51562C108.932 3.04688 109.719 2.68229 110.562 2.42188C111.406 2.16146 112.297 2.03125 113.234 2.03125C114.745 2.03125 116.12 2.26562 117.359 2.73438C118.609 3.20312 119.672 3.875 120.547 4.75C121.432 5.61458 122.115 6.66667 122.594 7.90625C123.083 9.13542 123.328 10.5104 123.328 12.0312ZM116.391 12.4375C116.391 11.9896 116.323 11.5573 116.188 11.1406C116.062 10.7135 115.875 10.3385 115.625 10.0156C115.375 9.68229 115.062 9.41667 114.688 9.21875C114.323 9.01042 113.901 8.90625 113.422 8.90625C112.932 8.90625 112.495 8.99479 112.109 9.17188C111.724 9.34896 111.391 9.59375 111.109 9.90625C110.839 10.2083 110.63 10.5677 110.484 10.9844C110.339 11.3906 110.266 11.8229 110.266 12.2812C110.266 12.7188 110.328 13.1562 110.453 13.5938C110.578 14.0312 110.766 14.4271 111.016 14.7812C111.266 15.1354 111.573 15.4219 111.938 15.6406C112.312 15.8594 112.745 15.9688 113.234 15.9688C113.724 15.9688 114.161 15.875 114.547 15.6875C114.943 15.4896 115.276 15.2292 115.547 14.9062C115.818 14.5729 116.026 14.1927 116.172 13.7656C116.318 13.3385 116.391 12.8958 116.391 12.4375ZM143.047 2C142.578 5.66667 142.177 9.31771 141.844 12.9531C141.51 16.5781 141.193 20.2292 140.891 23.9062L134.484 24.375L134.766 21.9688C134.557 22.2083 134.312 22.4167 134.031 22.5938C133.76 22.7708 133.469 22.9167 133.156 23.0312C132.844 23.1354 132.521 23.2135 132.188 23.2656C131.854 23.3073 131.536 23.3229 131.234 23.3125C130.526 23.3021 129.859 23.1667 129.234 22.9062C128.609 22.6354 128.036 22.2812 127.516 21.8438C126.995 21.3958 126.526 20.8802 126.109 20.2969C125.693 19.7031 125.339 19.0833 125.047 18.4375C124.766 17.7812 124.547 17.1146 124.391 16.4375C124.245 15.7604 124.172 15.1042 124.172 14.4688C124.172 13.5312 124.188 12.5625 124.219 11.5625C124.26 10.5521 124.328 9.54167 124.422 8.53125C124.516 7.52083 124.635 6.52083 124.781 5.53125C124.938 4.54167 125.13 3.59375 125.359 2.6875C126.63 2.75 127.906 2.80729 129.188 2.85938C130.469 2.91146 131.745 2.92708 133.016 2.90625C132.776 3.8125 132.536 4.72396 132.297 5.64062C132.068 6.54688 131.859 7.46354 131.672 8.39062C131.484 9.30729 131.333 10.2292 131.219 11.1562C131.104 12.0833 131.047 13.0208 131.047 13.9688C131.047 14.1875 131.057 14.5 131.078 14.9062C131.099 15.3125 131.151 15.7135 131.234 16.1094C131.328 16.5052 131.464 16.8542 131.641 17.1562C131.828 17.4479 132.089 17.5938 132.422 17.5938C132.818 17.5938 133.172 17.4271 133.484 17.0938C133.797 16.75 134.073 16.2917 134.312 15.7188C134.552 15.1458 134.755 14.4844 134.922 13.7344C135.099 12.9844 135.245 12.2031 135.359 11.3906C135.484 10.5677 135.583 9.73958 135.656 8.90625C135.729 8.07292 135.781 7.29167 135.812 6.5625C135.854 5.82292 135.88 5.16146 135.891 4.57812C135.911 3.99479 135.922 3.54167 135.922 3.21875C135.922 3.01042 135.917 2.80729 135.906 2.60938C135.896 2.41146 135.88 2.20833 135.859 2C136.536 2.02083 137.208 2.03646 137.875 2.04688C138.542 2.05729 139.214 2.0625 139.891 2.0625C140.411 2.0625 140.932 2.0625 141.453 2.0625C141.984 2.05208 142.516 2.03125 143.047 2ZM160.531 1.96875L160.375 8.59375L155.719 8.78125L155.156 23.2812L148.562 23.625L147.969 9.125L143.312 9.375L143.5 2L160.531 1.96875ZM175.828 2L174.734 23.2812L168.141 23.625L167.516 2.4375L175.828 2ZM193.656 1.96875L193.5 8.59375L188.844 8.78125L188.281 23.2812L181.688 23.625L181.094 9.125L176.438 9.375L176.625 2L193.656 1.96875Z" fill="#30452C"/>
</svg>
